<?xml version="1.0" encoding="iso-8859-1"?>
<svg xmlns="http://www.w3.org/2000/svg" xmlns:xlink="http://www.w3.org/1999/xlink" version="1.1" id="Layer_1" x="0px" y="0px" viewBox="0 0 512 512" style="enable-background:new 0 0 512 512;" xml:space="preserve">
<g>
	<path style="fill:#59A7FF;" d="M453.822,29.916C450.387,28.694,368.406,0,256,0S61.613,28.694,58.178,29.916   c-5.979,2.126-9.974,7.786-9.974,14.133v374.258c0,5.433,2.938,10.44,7.68,13.092c1.455,0.814,36.114,20.152,77.795,39.82   C191.024,498.279,232.18,512,256,512s64.976-13.721,122.321-40.781c41.681-19.668,76.34-39.006,77.795-39.82   c4.742-2.651,7.68-7.659,7.68-13.092V44.049C463.796,37.702,459.802,32.042,453.822,29.916z"/>
	<path style="fill:#316196;" d="M453.822,29.916C450.387,28.694,368.406,0,256,0v512c23.82,0,64.976-13.721,122.321-40.781   c41.681-19.668,76.34-39.006,77.795-39.82c4.742-2.651,7.68-7.659,7.68-13.092V44.049   C463.796,37.702,459.802,32.042,453.822,29.916z"/>
	<path style="fill:#F0F1F5;" d="M256,87.042c-42.834,0-77.558,34.724-77.558,77.558v52.007h50V164.6   c0-15.195,12.362-27.558,27.558-27.558s27.558,12.362,27.558,27.558v52.007h50V164.6C333.558,121.766,298.834,87.042,256,87.042z"/>
	<path style="fill:#BBBEC7;" d="M256,87.042v50c15.195,0,27.558,12.362,27.558,27.558v52.007h50V164.6   C333.558,121.766,298.834,87.042,256,87.042z"/>
	<path style="fill:#FFBD59;" d="M362.488,208.298H149.512c-8.284,0-15,6.716-15,15v152.435c0,8.284,6.716,15,15,15h212.977   c8.284,0,15-6.716,15-15V223.298C377.488,215.014,370.772,208.298,362.488,208.298z"/>
	<path style="fill:#FF8036;" d="M362.488,208.298H256v182.435h106.488c8.284,0,15-6.716,15-15V223.298   C377.488,215.014,370.772,208.298,362.488,208.298z"/>
	<path style="fill:#59A7FF;" d="M256,263.064c-8.284,0-15,6.716-15,15v43.628c0,8.284,6.716,15,15,15s15-6.716,15-15v-43.628   C271,269.78,264.284,263.064,256,263.064z"/>
	<path style="fill:#316196;" d="M256,263.064v73.628c8.284,0,15-6.716,15-15v-43.628C271,269.78,264.284,263.064,256,263.064z"/>
</g>















</svg>
