<?xml version="1.0" encoding="iso-8859-1"?>
<svg version="1.1" id="Layer_1" xmlns="http://www.w3.org/2000/svg" xmlns:xlink="http://www.w3.org/1999/xlink" x="0px" y="0px"
	 viewBox="0 0 496.158 496.158" style="enable-background:new 0 0 496.158 496.158;" xml:space="preserve">
<path style="fill:#40A459;" d="M248.082,0.003C111.07,0.003,0,111.063,0,248.085c0,137.001,111.07,248.07,248.082,248.07
	c137.006,0,248.076-111.069,248.076-248.07C496.158,111.062,385.088,0.003,248.082,0.003z"/>
<path style="fill:#7A797F;" d="M294.929,134.138h-93.69c-18.264,0-27.565,9.292-27.565,27.556V387.66
	c0,18.264,9.302,27.556,27.565,27.556l93.689-0.004c18.264,0.004,27.556-9.288,27.556-27.551V161.694
	C322.484,143.431,313.192,134.138,294.929,134.138z"/>
<path style="fill:#CD2900;" d="M262.319,151.592h-28.47c-1.776,0-3.223,1.437-3.223,3.213s1.446,3.218,3.223,3.218h28.471
	c1.776,0,3.213-1.442,3.213-3.218S264.096,151.592,262.319,151.592z"/>

<!-- <path style="fill:#378B4E;" d="M511.166,256c0-44.143-11.198-85.671-30.908-121.898l-7.82,14.269
	c-9.45,17.245-21.888,34.878-34.284,50.741c4.162,18.295,6.374,37.333,6.374,56.888c0,71.337-29.248,135.834-76.4,182.176
	l23.852,34.666C463.639,427.598,511.166,347.012,511.166,256z"/>
<path style="fill:#378B4E;" d="M342.752,496.827l-17.317-24.795c-30.569,19.333-65.625,32.915-103.137,37.801
	c10.906,1.42,22.13,1.612,33.424,1.612C286.17,511.445,315.674,506.6,342.752,496.827z"/>
<path style="fill:#378B4E;" d="M341.718,497.229c18.2-6.475,35.457-14.944,51.49-25.164l-24.615-34.338
	c-13.395,13.232-28.248,24.992-44.293,35.023L341.718,497.229z"/> -->


	
<rect x="180.569" y="169.269" style="fill:#3D9AE3;" width="134.34" height="205.29"/>
<g>
	<path style="fill:#F3F4F5;" d="M197.144,98.119c-15.428-5.731-34.414-1.21-48.374,11.514
		c-15.534,14.159-21.366,35.595-14.183,52.128c1.175,2.704,3.814,4.319,6.586,4.319c0.955,0,1.926-0.192,2.856-0.596
		c3.636-1.58,5.302-5.807,3.723-9.442c-4.775-10.991-0.381-25.712,10.687-35.8c10.033-9.145,23.264-12.546,33.707-8.667
		c3.717,1.379,7.847-0.514,9.227-4.229C202.754,103.63,200.859,99.499,197.144,98.119z"/>
	<path style="fill:#F3F4F5;" d="M192.341,68.388c-21.839-8.111-48.814-1.627-68.724,16.519
		c-22.129,20.169-30.496,50.568-20.348,73.924c1.176,2.704,3.814,4.319,6.586,4.319c0.955,0,1.926-0.192,2.856-0.596
		c3.636-1.58,5.302-5.807,3.723-9.442c-7.74-17.814-0.811-41.498,16.853-57.596c15.98-14.566,37.199-19.932,54.057-13.672
		c3.715,1.379,7.847-0.513,9.227-4.229C197.95,73.899,196.057,69.768,192.341,68.388z"/>
</g>
<g>
</g>
<g>
</g>
<g>
</g>
<g>
</g>
<g>
</g>
<g>
</g>
<g>
</g>
<g>
</g>
<g>
</g>
<g>
</g>
<g>
</g>
<g>
</g>
<g>
</g>
<g>
</g>
<g>
</g>
</svg>
