<svg height="418pt" viewBox="0 -1 418.93206 418" width="418pt" xmlns="http://www.w3.org/2000/svg"><path d="m252.589844 389.582031c-49.019532 0-88.75 6.117188-88.75 13.660157 0 7.539062 39.730468 13.652343 88.75 13.652343 49.011718 0 88.746094-6.113281 88.746094-13.652343 0-7.542969-39.734376-13.660157-88.746094-13.660157" fill="#dddee2"/><path d="m378.980469 297.757812c35.910156-65.972656 44.675781-130.75 16.121093-164.199218-2.53125-4.1875-6.066406-7.839844-10.671874-10.34375l-18.359376-9.996094c-5.730468-3.113281-12.898437-1-16.019531 4.730469l-31.300781 57.511719c-3.117188 5.726562-1 12.902343 4.726562 16.011718l37.53125 20.429688c-3.550781 17.679687-11.917968 39.253906-24.65625 62.660156-12.738281 23.40625-26.3125 42.136719-39.230468 54.71875l-37.53125-20.425781c-5.726563-3.113281-12.894532-1-16.011719 4.726562l-31.304687 57.511719c-3.117188 5.726562-1 12.902344 4.726562 16.015625l18.363281 9.992187c4.605469 2.507813 9.585938 3.5 14.472657 3.34375 43.59375 5.820313 93.238281-36.710937 129.144531-102.6875zm0 0" fill="#55a6ff"/><path d="m378.980469 297.757812 5.996093 3.265626c21.746094-40.015626 33.917969-79.707032 33.957032-113.429688.003906-22.90625-5.71875-43.328125-18.644532-58.472656l-5.1875 4.4375 5.839844-3.53125c-3.066406-5.085938-7.472656-9.671875-13.25-12.8125l-18.359375-9.992188c-2.804687-1.53125-5.886719-2.273437-8.894531-2.269531-6.585938-.011719-13.003906 3.523437-16.382812 9.730469l-31.300782 57.507812c-1.53125 2.808594-2.273437 5.886719-2.269531 8.898438-.007813 6.585937 3.53125 12.992187 9.722656 16.375l37.535157 20.429687 3.265624-5.996093-6.695312-1.34375c-3.34375 16.71875-11.457031 37.792968-23.957031 60.742187-12.484375 22.957031-25.773438 41.207031-38 53.089844l4.765625 4.890625 3.261718-5.996094-37.527343-20.425781c-2.808594-1.53125-5.886719-2.273438-8.898438-2.269531-6.582031-.015626-13 3.519531-16.378906 9.730468l-31.296875 57.507813c-1.53125 2.808593-2.273438 5.886719-2.269531 8.898437-.011719 6.585938 3.527343 12.992188 9.722656 16.371094l18.367187 9.996094c5.382813 2.933594 11.1875 4.195312 16.765626 4.1875l.972656-.011719v-6.820313l-.898438 6.765626c2.96875.390624 5.960938.585937 8.957032.582031 23.105468-.039063 46.304687-11.328125 67.949218-30.042969 21.664063-18.769531 41.949219-45.183594 59.128906-76.726562l-11.992187-6.53125c-16.53125 30.386718-36.011719 55.574218-56.074219 72.933593-20.082031 17.410157-40.566406 26.757813-59.011718 26.71875-2.414063-.003906-4.800782-.15625-7.164063-.46875l-.898437-.058593-.96875.011718c-3.570313-.007812-7.027344-.78125-10.238282-2.527344l-18.363281-9.992187c-1.671875-.910156-2.59375-2.609375-2.601563-4.386719 0-.804687.1875-1.59375.605469-2.363281l31.304688-57.515625c.90625-1.671875 2.597656-2.59375 4.382812-2.605469.804688.003907 1.59375.191407 2.367188.609375l37.53125 20.425782c2.625 1.429687 5.886719.980468 8.027343-1.101563 13.617188-13.277344 27.472657-32.492187 40.46875-56.347656 12.972657-23.867188 21.59375-45.9375 25.351563-64.578125.585937-2.933594-.804687-5.914063-3.433594-7.339844l-37.527343-20.429688c-1.671876-.910156-2.59375-2.609374-2.605469-4.386718.003906-.804688.191406-1.59375.609375-2.367188l31.304687-57.511718c.90625-1.675782 2.601563-2.59375 4.386719-2.605469.800781.003906 1.589844.1875 2.367188.609375l18.363281 9.992187c3.433593 1.875 6.097656 4.59375 8.089843 7.882813l.652344.902344c10.199219 11.921874 15.363282 28.867187 15.367188 49.601562.039062 30.410156-11.304688 68.390625-32.292969 106.898438zm0 0" fill="#54596e"/><path d="m271.90625 7.292969h-243.4375c-11.953125 0-21.640625 9.6875-21.640625 21.640625v195.652344c0 11.949218 9.6875 21.640624 21.640625 21.640624h133.09375l50.0625 47.789063v-47.789063h60.28125c11.949219 0 21.640625-9.691406 21.640625-21.640624v-195.652344c0-11.953125-9.691406-21.640625-21.640625-21.640625zm0 0" fill="#9af43b"/><path d="m271.90625 7.292969v-6.828125h-243.4375c-15.722656.003906-28.46484375 12.742187-28.46875 28.46875v195.652344c.00390625 15.722656 12.742188 28.460937 28.46875 28.464843h130.359375l48.085937 45.902344c1.980469 1.886719 4.878907 2.414063 7.398438 1.335937 2.519531-1.078124 4.140625-3.539062 4.140625-6.273437v-40.96875l53.453125.003906c15.726562-.003906 28.460938-12.742187 28.46875-28.464843v-195.652344c-.003906-15.726563-12.742188-28.464844-28.46875-28.46875v13.652344c8.179688.015624 14.800781 6.632812 14.816406 14.816406v195.652344c-.015625 8.171874-6.640625 14.796874-14.816406 14.816406h-60.277344c-1.796875 0-3.558594.726562-4.828125 1.996094-1.269531 1.273437-2 3.027343-2 4.828124v31.832032l-38.523437-36.773438c-1.261719-1.203125-2.96875-1.882812-4.710938-1.882812h-133.097656c-8.175781-.019532-14.800781-6.644532-14.816406-14.816406v-195.652344c.015625-8.183594 6.636718-14.800782 14.816406-14.816406h243.4375zm0 0" fill="#54596e"/><path d="m209.117188 177.960938h-41.863282v-34.136719h-34.132812v34.136719h-38.449219c-16.46875 0-33.230469 11.4375-33.230469 25.558593v22.226563h177.492188v-25.152344c0-12.5-15.238282-22.632812-29.816406-22.632812zm0 0" fill="#f99"/><path d="m209.117188 177.960938v-6.828126h-35.039063v-27.308593c0-1.796875-.730469-3.554688-2-4.828125-1.273437-1.269532-3.03125-1.996094-4.828125-1.996094h-34.132812c-1.796876 0-3.554688.726562-4.824219 1.996094-1.273438 1.273437-2 3.03125-2 4.828125v27.308593h-31.621094c-9.816406.027344-19.351563 3.308594-26.851563 8.824219-3.742187 2.773438-6.984374 6.144531-9.363281 10.105469-2.367187 3.953125-3.847656 8.5625-3.84375 13.457031v22.226563c0 1.824218.710938 3.535156 2.003907 4.828125 1.289062 1.289062 3 1.996093 4.824218 1.996093h177.492188c1.824218 0 3.539062-.707031 4.828125-1.996093 1.289062-1.292969 2-3.003907 2-4.828125v-25.152344c.003906-4.53125-1.402344-8.773438-3.609375-12.375-3.339844-5.414062-8.371094-9.5625-14.105469-12.484375-5.75-2.902344-12.273437-4.59375-18.929687-4.601563v13.648438c5.710937-.03125 11.972656 2.097656 16.359374 5.328125 2.203126 1.597656 3.929688 3.433594 5.027344 5.230469 1.101563 1.816406 1.597656 3.527344 1.605469 5.25v18.324218h-163.839844v-15.394531c.003907-2.167969.621094-4.285156 1.910157-6.449219 1.910156-3.230468 5.4375-6.414062 9.863281-8.679687 4.410156-2.273437 9.640625-3.613281 14.632812-3.609375h38.449219c1.820312 0 3.535156-.707031 4.824219-1.996094 1.289062-1.289062 2-3.003906 2-4.824218v-27.316407h20.480469v27.316407c0 1.820312.710937 3.535156 2 4.824218 1.289062 1.289063 3.003906 1.996094 4.828124 1.996094h41.863282v-6.820312zm0 0" fill="#54596e"/><path d="m211.625 119.933594 3.414062-41.667969c0-27.886719-21.210937-50.492187-47.371093-50.492187h-34.960938c-26.164062 0-47.375 22.605468-47.375 50.492187l3.414063 41.667969" fill="#bfad88"/><path d="m218.429688 120.488281 3.414062-41.664062.023438-.558594c0-15.683594-5.96875-29.980469-15.722657-40.375-9.734375-10.398437-23.398437-16.953125-38.476562-16.945313h-34.960938c-15.078125-.007812-28.742187 6.546876-38.476562 16.945313-9.753907 10.394531-15.722657 24.691406-15.722657 40.375l.019532.558594 3.414062 41.664062c.308594 3.757813 3.605469 6.554688 7.363282 6.246094 3.757812-.308594 6.554687-3.601563 6.246093-7.359375l-3.414062-41.667969-6.804688.558594h6.828125c0-12.203125 4.636719-23.15625 12.027344-31.035156 7.410156-7.878907 17.433594-12.628907 28.519531-12.632813h34.960938c11.082031.003906 21.105469 4.753906 28.519531 12.632813 7.390625 7.878906 12.027344 18.832031 12.027344 31.035156h6.824218l-6.804687-.558594-3.414063 41.664063c-.308593 3.757812 2.488282 7.054687 6.246094 7.363281 3.757813.308594 7.054688-2.484375 7.363282-6.242187zm0 0" fill="#54596e"/><path d="m127.550781 88.824219c-33.929687 0-38.804687-29.585938-38.804687 3.308593v27.511719c0 14.675781 6.980468 33.921875 18.855468 48.082031 8.996094 10.71875 25.296876 17.058594 42.585938 17.058594 17.285156 0 33.589844-6.339844 42.585938-17.058594 11.871093-14.160156 18.851562-33.40625 18.851562-48.082031v-27.511719c0-32.894531-50.140625-3.308593-84.074219-3.308593zm0 0" fill="#ffd578"/><path d="m127.550781 88.824219v-6.824219c-9.621093-.023438-16.21875-2.609375-21.289062-5.304688-2.539063-1.359374-4.644531-2.753906-6.644531-3.992187-1.007813-.621094-1.988282-1.210937-3.152344-1.761719-1.171875-.519531-2.558594-1.132812-4.75-1.164062-1.195313-.011719-2.660156.269531-3.960938.957031-1.140625.589844-2.085937 1.4375-2.75 2.277344-1.175781 1.5-1.660156 2.886719-2.023437 4.175781-.515625 1.953125-.71875 3.882812-.871094 6.285156-.140625 2.386719-.191406 5.210938-.191406 8.660156v27.511719c.011719 8.410157 1.949219 17.59375 5.425781 26.679688 3.488281 9.074219 8.535156 18.042969 15.023438 25.785156 5.390624 6.414063 12.675781 11.234375 20.894531 14.507813 8.230469 3.269531 17.445312 4.988281 26.921875 4.992187 9.476562-.003906 18.691406-1.722656 26.925781-4.992187 8.21875-3.273438 15.5-8.09375 20.890625-14.503907 6.492188-7.746093 11.539062-16.714843 15.023438-25.789062 3.476562-9.085938 5.417968-18.269531 5.429687-26.679688v-27.511719c-.003906-3.554687-.476563-6.808593-1.589844-9.78125-1.613281-4.476562-4.988281-8.125-8.9375-10.039062-3.945312-1.957031-8.167969-2.527344-12.476562-2.539062-10.304688.058593-21.988281 3.304687-34.042969 6.320312-11.980469 3.0625-24.203125 5.9375-33.855469 5.90625v13.648438c12.152344-.03125 25.089844-3.269532 37.210938-6.320313 12.042969-3.09375 23.40625-5.960937 30.6875-5.90625 2.003906 0 3.65625.203125 4.855469.535156 1.839843.539063 2.515624 1.089844 3.15625 1.960938.621093.886719 1.335937 2.691406 1.339843 6.214843v27.511719c.011719 6.261719-1.539062 14.039063-4.523437 21.785157-2.96875 7.753906-7.347656 15.492187-12.734375 21.910156-3.605469 4.304687-8.972657 8.011718-15.476563 10.589844-6.492187 2.582031-14.070312 4.03125-21.878906 4.027343-7.808594.003907-15.390625-1.445312-21.882812-4.027343-6.5-2.578126-11.867188-6.285157-15.476563-10.59375-5.382813-6.414063-9.761719-14.152344-12.734375-21.90625-2.984375-7.746094-4.53125-15.523438-4.519531-21.785157v-27.511719c-.015625-5.730468.195312-9.484374.488281-10.925781l.121094-.519531-3.40625-1.203125 2.355468 2.621094c.882813-.820313 1.039063-1.414063 1.050782-1.417969l-3.40625-1.203125 2.355468 2.621094-3.417968-3.804688v5.125c.910156.066407 2.566406-.476562 3.417968-1.316406l-3.417968-3.808594v5.128907-3.726563l-1.039063 3.59375 1.039063.128906v-3.722656l-1.039063 3.59375.347657-1.199219-.445313 1.164063.097656.035156.347657-1.195313-.445313 1.164063c.0625-.019531 1.554687.820313 3.453125 2.050781 5.863281 3.734375 16.910156 10.402344 33.523438 10.335938v-6.828125zm0 0" fill="#54596e"/></svg>