<svg id="Layer_1" data-name="Layer 1" xmlns="http://www.w3.org/2000/svg" viewBox="0 30 1300 600">
<defs><style>.cls-1{fill:#d74841;}.cls-2{fill:#fff;}.cls-3{fill:#fac52b;}</style></defs>
<title>Colour Inverse</title>
<rect class="cls-1" x="-111" y="-172.42" width="1519.88" height="949.15"/>
<path class="cls-2" d="M1139,251.28c-34.44-7.81-43-12.78-43-24.14v-.71c0-8.87,8.17-16,24.85-16a98.65,98.65,0,0,1,43.24,10.35l-8.85,15.72,33.1,18.45,49.4-87.77-33.1-18.45-10.77,19.14c-22.95-11.24-45.42-14.61-71.25-14.61-59.65,0-96.22,33.38-96.22,79.53v.71c0,51.13,40.83,66,93.73,78.11,33.73,7.81,41.9,13.49,41.9,23.79v.71c0,10.65-9.94,17-28.41,17-19.12,0-40.19-4.27-58.53-15.23l9-16-33-18.68L1001.75,391l33,18.68,10.92-19.4c25,13.85,56.32,20,85.51,20,60.36,0,100.48-30.18,100.48-81v-.71C1231.68,282.17,1196.17,263.71,1139,251.28Z"/>
<polygon class="cls-2" points="648.48 194.58 669.64 194.58 669.64 288.92 598.9 194.58 622.44 194.58 622.44 156.15 480.97 156.15 480.97 194.58 503.12 194.58 503.12 368.97 480.97 368.97 480.97 407.41 591.73 407.41 591.73 368.97 571.29 368.97 571.29 269.74 645.88 368.97 617.77 368.97 617.77 407.41 759.24 407.41 759.24 368.97 737.82 368.97 737.82 194.58 759.24 194.58 759.24 156.15 648.48 156.15 648.48 194.58"/>
<path class="cls-2" d="M221.34,194.58h21.79c-13.6,42.42-48,79-91.1,91v-91H173V156.15H62.21v38.43H83.15V369H62.21v38.43H173V369H152V353.6A200.91,200.91,0,0,0,197.3,340l15,29H190.63v38.43H332.1V369H294.61L254,306.36C284.62,278,306.55,237,315.18,194.58H332.1V156.15H221.34Z"/>
<polygon class="cls-2" points="349.76 194.58 371.69 194.58 371.69 368.97 349.76 368.97 349.76 407.41 460.52 407.41 460.52 368.97 440.92 368.97 440.92 194.58 460.52 194.58 460.52 156.15 349.76 156.15 349.76 194.58"/>
<path class="cls-2" d="M1019.51,269.73H862v44.77h97a59.93,59.93,0,0,1-7.6,13.47,50.42,50.42,0,0,1-16.71,14.18,70.1,70.1,0,0,1-22.91,7.43,104.9,104.9,0,0,1-13.19,1.22c-2.24.15-4.58,0-6.87,0-2.12-.12-4-.2-6-.48a60.77,60.77,0,0,1-22.07-7,67.16,67.16,0,0,1-29.62-32.82,70,70,0,0,1,17.09-79.39,61.17,61.17,0,0,1,18.87-11.7,64.67,64.67,0,0,1,22.3-4.59c12.27-.55,24.81.94,36.36,6.16l-.73,1.26-8.35,15.37,34,19.71,21.85-38.23a268.77,268.77,0,0,1-68.3-19c-36.24-15.54-59.31-34.74-66.05-40.76a133.91,133.91,0,0,0-32.63,17.86,128.66,128.66,0,0,0-51.16,121.24A126.55,126.55,0,0,0,771.51,342a128.49,128.49,0,0,0,28.26,35.42,130.32,130.32,0,0,0,38.08,23.5,140.75,140.75,0,0,0,21.27,6.63,143.2,143.2,0,0,0,21.93,3c3.64.25,7.41.22,10.93.17,3.35-.15,6.66-.24,10-.54a163.7,163.7,0,0,0,20.4-2.7,134.86,134.86,0,0,0,40.66-14.87,113.84,113.84,0,0,0,34.11-29.8,123.08,123.08,0,0,0,19.67-39.65c4.14-13.82,5.72-27.78,6.09-41.4l-.32-12.05Z"/>
<path class="cls-3" d="M1032.53,138.36a7.51,7.51,0,1,0-4.11,4A7.46,7.46,0,0,0,1032.53,138.36Z"/>
<path class="cls-3" d="M879.88,72.87a7.5,7.5,0,1,0-4.12,4A7.52,7.52,0,0,0,879.88,72.87Z"/>
<path class="cls-3" d="M951.15,97.62A11.1,11.1,0,1,0,945.32,83,11.11,11.11,0,0,0,951.15,97.62Z"/>
<path class="cls-3" d="M862.21,133.39c.28.27,21.5,20.31,58.13,36,35.08,15.06,66.14,17.3,66.45,17.32a14.36,14.36,0,0,1,2.44.41l27.63-45.36-45.19-1.12-22.35-38.85L905.79,112.4l-31.95-32L860,131.67A14.37,14.37,0,0,1,862.21,133.39Z"/>
<path class="cls-3" d="M985.86,209.09l-.53,0c-1.41-.09-35-2.42-73.82-19.09-40.77-17.49-63.86-39.54-64.82-40.46a8.07,8.07,0,0,1,11.21-11.62h0c.22.21,22.11,21,60,37.25,36.17,15.52,68.18,17.79,68.5,17.81a8.07,8.07,0,0,1-.52,16.13Z"/>
<path class="cls-2" d="M878.86,96.89l-4.3,33.34a3.21,3.21,0,1,1-6.36-.82c0-.09,0-.19,0-.28l7.22-32.83a1.72,1.72,0,0,1,3.39.59Z"/>
<path class="cls-2" d="M855.27,140.9c6.66,5.5,13.61,10.82,20.69,15.83a162.08,162.08,0,0,0,22.14,13.46l0,0a1.72,1.72,0,0,1-1.45,3.12,165.56,165.56,0,0,1-23.15-13c-7.38-4.85-14.52-10-21.54-15.37a2.59,2.59,0,0,1,3.16-4.1l.06,0Z"/>
<path class="cls-2" d="M909.26,117.51l34.87-8.37a1.72,1.72,0,0,1,1,3.31l-33.89,11.74a3.48,3.48,0,1,1-2.28-6.57Z"/>
<circle class="cls-2" cx="871.4" cy="67.8" r="1.77"/>
<circle class="cls-2" cx="951.63" cy="81.77" r="1.77"/>
<circle class="cls-2" cx="1022.92" cy="133.23" r="1.77"/>
<path class="cls-3" d="M160.62,442.38H226.7v26h-30.3v8.51h30.3V502h-30.3v32.26H160.62Z"/>
<path class="cls-3" d="M272.47,534.21H236.7V442.38h35.77Z"/>
<path class="cls-3" d="M319.45,536.45q-25.82,0-34.27-6.38V503.73l1.7.52,3.71,1.15q5.23,1.61,11,3a41.36,41.36,0,0,0,9.29,1.41q5.75,0,5.75-3.51,0-2.7-4.95-5.75-2.24-1.38-5.09-2.87t-5.78-3.34A40.15,40.15,0,0,1,289.29,484q-4.34-5.92-4.34-15,0-19.72,20.82-26.51a62.92,62.92,0,0,1,19.52-2.76,112.94,112.94,0,0,1,23.14,2.53q2.47.52,3.28.75v26.4q-15.64-3.34-22.48-3.34a7,7,0,0,0-4,.92,2.57,2.57,0,0,0-1.32,2.07,3.59,3.59,0,0,0,1.15,2.39,12.16,12.16,0,0,0,4,2.47q2.82,1.24,6.58,3a69.57,69.57,0,0,1,7,3.77q14.72,9,14.72,24.67,0,14.84-10,22.94T319.45,536.45Z"/>
<path class="cls-3" d="M424.51,442.38h35.82v91.83H424.51V500.28L405.42,502v32.26H369.65V442.38h35.77v33.18L424.51,474Z"/>
<path class="cls-3" d="M575.63,491.72q14.66-11,20-22.89l27.08,7.3q.06,7.71-9.14,19.49t-17.31,16.22a69.48,69.48,0,0,0,12.28,9.55,44.46,44.46,0,0,0,14.06,4.83v8H574.48l-5.35-5.87a38.1,38.1,0,0,1-11.62,5.81,58.83,58.83,0,0,1-24.93,1.64q-11.53-1.93-19.18-6.93-12.77-8.39-12.77-23.52,0-11.1,6.38-18.83t18.11-11.87q2.41-.86,3.39-1.32-3.68-7-3.68-11.53a18.17,18.17,0,0,1,1.32-7.45q3.68-8.4,15.41-12.19a53.72,53.72,0,0,1,16.5-2.24,39.8,39.8,0,0,1,18.23,4.37,19.81,19.81,0,0,1,9.2,8.91,15,15,0,0,1,1.41,6.35,13.67,13.67,0,0,1-1.29,6.15,22,22,0,0,1-3.36,5,32.85,32.85,0,0,1-4.46,4.17q-2.41,1.87-4.63,3.28t-3.88,2.36a11.75,11.75,0,0,0-2.13,1.41Zm-34.39.34q-6.5,3.11-6.5,9.43a7.19,7.19,0,0,0,4.54,7.19,6.64,6.64,0,0,0,2.76.69,25.36,25.36,0,0,0,5.87-.8,15.92,15.92,0,0,0,5.12-2ZM566,461.41q0-5.17-7.3-5.18a8.21,8.21,0,0,0-4.83,1.58,4.48,4.48,0,0,0-2.24,3.65,6.81,6.81,0,0,0,1.9,4.31l3.16,3.68q.57-.34,2.07-1Q566,465.15,566,461.41Z"/>
<path class="cls-3" d="M700,442.38l10.52,32.72,22.94-30.76a12.21,12.21,0,0,1,1.73-2,2.73,2.73,0,0,1,1.73-.46q1.15,0,2.93,2.47l21.39,30.42,10.35-32.37h32.89l-30,89.48q-2,5.75-6.61,5.75t-8.34-5.29l-25.7-37.09-27.66,37.2q-3.74,4.95-8.34,4.95t-6.73-5.75l-32.32-89.25Z"/>
<path class="cls-3" d="M851.19,534.21H815.42V442.38h35.77Z"/>
<path class="cls-3" d="M865.22,442.38h9.32l50.14,35.77V442.38h32.37v91.83H944.69l-47.21-31.57v31.57H865.22Z"/>
<path class="cls-3" d="M1044.63,490.51l8.8-.06q3.22,0,3.74-.06v42.67q-20.18,3.39-32.2,3.39a72.49,72.49,0,0,1-22.54-3.42,55.32,55.32,0,0,1-18.23-9.75A45,45,0,0,1,972.12,508a45.51,45.51,0,0,1-4.37-20.15q0-21.91,17.45-35T1030,439.79q13.4,0,21.22,2.88a13.58,13.58,0,0,0,1.5.52V471a53.37,53.37,0,0,0-15.53-2.59q-12.88,0-20.18,6.84T1009.72,491a15,15,0,0,0,3.42,10.18,11.76,11.76,0,0,0,9.4,4,12,12,0,0,0,4.95-.81q.11-2.13.11-5.46v-8.34Z"/>
<path class="cls-3" d="M1103.28,536.45q-25.82,0-34.27-6.38V503.73l1.7.52,3.71,1.15q5.23,1.61,11,3a41.36,41.36,0,0,0,9.29,1.41q5.75,0,5.75-3.51,0-2.7-4.95-5.75-2.24-1.38-5.09-2.87t-5.78-3.34A40.15,40.15,0,0,1,1073.12,484q-4.34-5.92-4.34-15,0-19.72,20.82-26.51a62.92,62.92,0,0,1,19.52-2.76,112.94,112.94,0,0,1,23.14,2.53q2.47.52,3.28.75v26.4q-15.64-3.34-22.48-3.34a7,7,0,0,0-4,.92,2.57,2.57,0,0,0-1.32,2.07,3.59,3.59,0,0,0,1.15,2.39,12.16,12.16,0,0,0,4,2.47q2.82,1.24,6.58,3a69.57,69.57,0,0,1,7,3.77q14.72,9,14.72,24.67,0,14.84-10,22.94T1103.28,536.45Z"/>
<circle class="cls-3" cx="90.62" cy="488.97" r="24.76"/>
<circle class="cls-3" cx="1205.61" cy="488.97" r="24.76"/>
</svg>